<svg width="20" height="20" viewBox="0 0 20 20" fill="none" xmlns="http://www.w3.org/2000/svg">
<g clip-path="url(#clip0_711_5479)">
<path d="M6.66699 10.0001C6.66699 10.8841 7.01818 11.732 7.6433 12.3571C8.26842 12.9822 9.11627 13.3334 10.0003 13.3334C10.8844 13.3334 11.7322 12.9822 12.3573 12.3571C12.9825 11.732 13.3337 10.8841 13.3337 10.0001C13.3337 9.11603 12.9825 8.26818 12.3573 7.64306C11.7322 7.01794 10.8844 6.66675 10.0003 6.66675C9.11627 6.66675 8.26842 7.01794 7.6433 7.64306C7.01818 8.26818 6.66699 9.11603 6.66699 10.0001Z" stroke="#042954" stroke-width="1.5" stroke-linecap="round" stroke-linejoin="round"/>
<path d="M2.5 10C2.5 10.9849 2.69399 11.9602 3.0709 12.8701C3.44781 13.7801 4.00026 14.6069 4.6967 15.3033C5.39314 15.9997 6.21993 16.5522 7.12987 16.9291C8.03982 17.306 9.01509 17.5 10 17.5C10.9849 17.5 11.9602 17.306 12.8701 16.9291C13.7801 16.5522 14.6069 15.9997 15.3033 15.3033C15.9997 14.6069 16.5522 13.7801 16.9291 12.8701C17.306 11.9602 17.5 10.9849 17.5 10C17.5 9.01509 17.306 8.03982 16.9291 7.12987C16.5522 6.21993 15.9997 5.39314 15.3033 4.6967C14.6069 4.00026 13.7801 3.44781 12.8701 3.0709C11.9602 2.69399 10.9849 2.5 10 2.5C9.01509 2.5 8.03982 2.69399 7.12987 3.0709C6.21993 3.44781 5.39314 4.00026 4.6967 4.6967C4.00026 5.39314 3.44781 6.21993 3.0709 7.12987C2.69399 8.03982 2.5 9.01509 2.5 10Z" stroke="#042954" stroke-width="1.5" stroke-linecap="round" stroke-linejoin="round"/>
<path d="M12.5 12.5L15.2917 15.2917" stroke="#042954" stroke-width="1.5" stroke-linecap="round" stroke-linejoin="round"/>
<path d="M7.49967 12.5L4.70801 15.2917" stroke="#042954" stroke-width="1.5" stroke-linecap="round" stroke-linejoin="round"/>
<path d="M4.70801 4.70825L7.49967 7.49992" stroke="#042954" stroke-width="1.5" stroke-linecap="round" stroke-linejoin="round"/>
<path d="M15.2917 4.70825L12.5 7.49992" stroke="#042954" stroke-width="1.5" stroke-linecap="round" stroke-linejoin="round"/>
</g>
<defs>
<clipPath id="clip0_711_5479">
<rect width="20" height="20" fill="white"/>
</clipPath>
</defs>
</svg>
