<svg width="303" height="457" viewBox="0 0 303 457" fill="none" xmlns="http://www.w3.org/2000/svg">
<rect width="303" height="457" rx="8" fill="#E6EAF0"/>
<g opacity="0.5">
<path d="M215.978 150C217.696 143.987 223.962 140.506 229.975 142.224C235.988 143.942 239.47 150.209 237.752 156.222C236.034 162.234 229.767 165.716 223.754 163.998C217.741 162.28 214.26 156.013 215.978 150Z" fill="#BECADB" stroke="#BECADB"/>
<path d="M135.53 173.359C136.834 168.796 141.591 166.153 146.154 167.457C150.718 168.761 153.361 173.518 152.057 178.082C150.753 182.645 145.995 185.288 141.432 183.984C136.869 182.68 134.226 177.923 135.53 173.359Z" fill="#BECADB" stroke="#BECADB"/>
<path d="M122.289 120.392C123.593 115.828 128.351 113.186 132.914 114.49C137.477 115.794 140.121 120.551 138.817 125.115C137.513 129.678 132.755 132.321 128.192 131.017C123.629 129.713 120.985 124.956 122.289 120.392Z" fill="#BECADB" stroke="#BECADB"/>
<path d="M165.512 134.633C166.54 131.035 170.29 128.952 173.888 129.98C177.486 131.008 179.57 134.758 178.542 138.356C177.513 141.954 173.763 144.037 170.165 143.009C166.568 141.982 164.484 138.231 165.512 134.633Z" fill="#BECADB" stroke="#BECADB"/>
<path d="M102.799 148.874C103.827 145.276 107.578 143.192 111.175 144.22C114.773 145.248 116.857 148.998 115.829 152.596C114.801 156.194 111.05 158.278 107.452 157.25C103.855 156.222 101.771 152.471 102.799 148.874Z" fill="#BECADB" stroke="#BECADB"/>
<path d="M198.741 71.2993C201.011 63.3549 209.293 58.755 217.236 61.0247C225.18 63.2945 229.781 71.5752 227.511 79.5196C225.241 87.464 216.96 92.064 209.016 89.7942C201.072 87.5244 196.471 79.2437 198.741 71.2993Z" fill="#BECADB" stroke="#BECADB"/>
<path d="M67.0725 134.882C68.1006 131.284 71.851 129.201 75.4487 130.229C79.0465 131.257 81.1301 135.007 80.102 138.605C79.074 142.203 75.3236 144.286 71.7258 143.258C68.1281 142.23 66.0445 138.48 67.0725 134.882Z" fill="#BECADB" stroke="#BECADB"/>
<path d="M46.3371 194.219C48.3311 187.24 55.6051 183.199 62.5834 185.193C69.5618 187.187 73.6028 194.461 71.6088 201.44C69.6148 208.418 62.3409 212.459 55.3626 210.465C48.3842 208.471 44.3431 201.197 46.3371 194.219Z" fill="#BECADB" stroke="#BECADB"/>
<line x1="228.183" y1="153.21" x2="60.2894" y2="197.93" stroke="#BECADB" stroke-width="1.5"/>
<line x1="227.252" y1="152.616" x2="213.511" y2="74.9154" stroke="#BECADB" stroke-width="1.5"/>
<line x1="130.178" y1="122.103" x2="213.875" y2="74.1346" stroke="#BECADB" stroke-width="1.5"/>
<line x1="173.648" y1="134.833" x2="213.623" y2="74.372" stroke="#BECADB" stroke-width="1.5"/>
<line x1="227.771" y1="153.203" x2="130.334" y2="123.471" stroke="#BECADB" stroke-width="1.5"/>
<line x1="59.3637" y1="197.041" x2="72.8559" y2="136.58" stroke="#BECADB" stroke-width="1.5"/>
<line x1="109.041" y1="151.434" x2="73.3139" y2="137.443" stroke="#BECADB" stroke-width="1.5"/>
<line x1="143.067" y1="175.901" x2="129.826" y2="122.935" stroke="#BECADB" stroke-width="1.5"/>
<line x1="143.186" y1="175.281" x2="171.419" y2="136.057" stroke="#BECADB" stroke-width="1.5"/>
</g>
<path opacity="0.5" d="M125 413.5C137.788 387.077 108.621 358.615 130 338.5C149.416 320.232 172.472 340.181 198 332.5C223.518 324.822 231.77 295.301 258 300C285.616 304.948 303 356 303 356V447C303 451.971 298.971 456 294 456H155H86C86 456 115.187 433.776 125 413.5Z" fill="#BECADB"/>
<path opacity="0.5" d="M0.00303313 80.7042C0.00303313 80.7042 6.43263 74.952 11.2566 74.1785C23.972 72.1396 35.8337 87.9214 33.7637 103.372C32.3572 113.871 22.4124 113.927 18.8527 123.636C12.7397 140.31 32.4174 154.969 23.9168 170.003C19.6215 177.6 15.5773 185.544 8.16185 183.741C-0.402409 181.66 0.00303313 158.326 0.00303313 158.326V80.7042Z" fill="#BECADB"/>
</svg>
