<svg width="202" height="41" viewBox="0 0 202 41" fill="none" xmlns="http://www.w3.org/2000/svg">
<path d="M52.5195 16.5283V25.2237" stroke="#4B6C9A" stroke-width="0.5" stroke-miterlimit="10"/>
<path d="M53.9034 27.6334C53.7444 28.1955 53.2184 28.8617 52.5034 28.8617C51.7885 28.8617 51.2625 28.1955 51.1034 27.6334C50.8483 26.734 51.3869 25.5828 52.5034 25.0023C53.62 25.5828 54.157 26.734 53.9034 27.6334Z" fill="#4B6C9A"/>
<path d="M30.3159 2.51701C30.9682 2.51701 31.497 1.95355 31.497 1.2585C31.497 0.56345 30.9682 0 30.3159 0C29.6636 0 29.1348 0.56345 29.1348 1.2585C29.1348 1.95355 29.6636 2.51701 30.3159 2.51701Z" fill="#4B6C9A"/>
<path d="M30.3159 14.9342C30.9682 14.9342 31.497 14.3708 31.497 13.6757C31.497 12.9807 30.9682 12.4172 30.3159 12.4172C29.6636 12.4172 29.1348 12.9807 29.1348 13.6757C29.1348 14.3708 29.6636 14.9342 30.3159 14.9342Z" fill="#4B6C9A"/>
<path d="M1.1811 15.102C1.8334 15.102 2.36221 14.5386 2.36221 13.8435C2.36221 13.1485 1.8334 12.585 1.1811 12.585C0.528797 12.585 0 13.1485 0 13.8435C0 14.5386 0.528797 15.102 1.1811 15.102Z" fill="#4B6C9A"/>
<path d="M20.7077 15.2698C21.4469 15.2698 22.0463 14.6313 22.0463 13.8435C22.0463 13.0558 21.4469 12.4172 20.7077 12.4172C19.9685 12.4172 19.3691 13.0558 19.3691 13.8435C19.3691 14.6313 19.9685 15.2698 20.7077 15.2698Z" fill="#4B6C9A"/>
<path d="M23.071 31.2109C23.8102 31.2109 24.4096 30.5722 24.4096 29.7846C24.4096 28.9969 23.8102 28.3583 23.071 28.3583C22.3318 28.3583 21.7324 28.9969 21.7324 29.7846C21.7324 30.5722 22.3318 31.2109 23.071 31.2109Z" fill="#4B6C9A"/>
<path d="M15.6701 8.55781C16.2355 8.55781 16.6937 8.06949 16.6937 7.46711C16.6937 6.86472 16.2355 6.3764 15.6701 6.3764C15.1048 6.3764 14.6465 6.86472 14.6465 7.46711C14.6465 8.06949 15.1048 8.55781 15.6701 8.55781Z" fill="#4B6C9A"/>
<path d="M11.1017 14.7664C11.6671 14.7664 12.1254 14.2781 12.1254 13.6757C12.1254 13.0733 11.6671 12.585 11.1017 12.585C10.5364 12.585 10.0781 13.0733 10.0781 13.6757C10.0781 14.2781 10.5364 14.7664 11.1017 14.7664Z" fill="#4B6C9A"/>
<path d="M15.6701 20.975C16.2355 20.975 16.6937 20.4867 16.6937 19.8843C16.6937 19.2819 16.2355 18.7936 15.6701 18.7936C15.1048 18.7936 14.6465 19.2819 14.6465 19.8843C14.6465 20.4867 15.1048 20.975 15.6701 20.975Z" fill="#4B6C9A"/>
<path d="M30.3146 27.1837C30.88 27.1837 31.3383 26.6954 31.3383 26.093C31.3383 25.4906 30.88 25.0023 30.3146 25.0023C29.7493 25.0023 29.291 25.4906 29.291 26.093C29.291 26.6954 29.7493 27.1837 30.3146 27.1837Z" fill="#4B6C9A"/>
<path d="M23.1487 23.8277C23.5835 23.8277 23.9361 23.452 23.9361 22.9887C23.9361 22.5254 23.5835 22.1497 23.1487 22.1497C22.7139 22.1497 22.3613 22.5254 22.3613 22.9887C22.3613 23.452 22.7139 23.8277 23.1487 23.8277Z" fill="#4B6C9A"/>
<path d="M22.8343 5.20181C23.2691 5.20181 23.6217 4.82617 23.6217 4.36281C23.6217 3.89944 23.2691 3.5238 22.8343 3.5238C22.3995 3.5238 22.0469 3.89944 22.0469 4.36281C22.0469 4.82617 22.3995 5.20181 22.8343 5.20181Z" fill="#4B6C9A"/>
<path d="M8.81865 11.2426C9.25352 11.2426 9.60605 10.867 9.60605 10.4036C9.60605 9.94027 9.25352 9.56464 8.81865 9.56464C8.38379 9.56464 8.03125 9.94027 8.03125 10.4036C8.03125 10.867 8.38379 11.2426 8.81865 11.2426Z" fill="#4B6C9A"/>
<path d="M8.81865 17.9547C9.25352 17.9547 9.60605 17.579 9.60605 17.1157C9.60605 16.6523 9.25352 16.2767 8.81865 16.2767C8.38379 16.2767 8.03125 16.6523 8.03125 17.1157C8.03125 17.579 8.38379 17.9547 8.81865 17.9547Z" fill="#4B6C9A"/>
<path d="M23.1487 37.7551C23.5835 37.7551 23.9361 37.3794 23.9361 36.9161C23.9361 36.4528 23.5835 36.0771 23.1487 36.0771C22.7139 36.0771 22.3613 36.4528 22.3613 36.9161C22.3613 37.3794 22.7139 37.7551 23.1487 37.7551Z" fill="#4B6C9A"/>
<path d="M15.7483 27.6871C16.1831 27.6871 16.5357 27.3114 16.5357 26.8481C16.5357 26.3848 16.1831 26.0091 15.7483 26.0091C15.3135 26.0091 14.9609 26.3848 14.9609 26.8481C14.9609 27.3114 15.3135 27.6871 15.7483 27.6871Z" fill="#4B6C9A"/>
<path d="M19.3702 25.6735C19.718 25.6735 20.0001 25.3729 20.0001 25.0023C20.0001 24.6316 19.718 24.3311 19.3702 24.3311C19.0223 24.3311 18.7402 24.6316 18.7402 25.0023C18.7402 25.3729 19.0223 25.6735 19.3702 25.6735Z" fill="#4B6C9A"/>
<path d="M30.2354 33.7279C30.5833 33.7279 30.8653 33.4274 30.8653 33.0567C30.8653 32.686 30.5833 32.3855 30.2354 32.3855C29.8875 32.3855 29.6055 32.686 29.6055 33.0567C29.6055 33.4274 29.8875 33.7279 30.2354 33.7279Z" fill="#4B6C9A"/>
<path d="M26.5356 28.5261C26.84 28.5261 27.0867 28.2632 27.0867 27.9388C27.0867 27.6144 26.84 27.3515 26.5356 27.3515C26.2311 27.3515 25.9844 27.6144 25.9844 27.9388C25.9844 28.2632 26.2311 28.5261 26.5356 28.5261Z" fill="#4B6C9A"/>
<path d="M26.5356 35.2381C26.84 35.2381 27.0867 34.9751 27.0867 34.6508C27.0867 34.3264 26.84 34.0635 26.5356 34.0635C26.2311 34.0635 25.9844 34.3264 25.9844 34.6508C25.9844 34.9751 26.2311 35.2381 26.5356 35.2381Z" fill="#4B6C9A"/>
<path d="M19.2914 32.5533C19.5958 32.5533 19.8426 32.2903 19.8426 31.966C19.8426 31.6416 19.5958 31.3787 19.2914 31.3787C18.987 31.3787 18.7402 31.6416 18.7402 31.966C18.7402 32.2903 18.987 32.5533 19.2914 32.5533Z" fill="#4B6C9A"/>
<path d="M21.8897 19.1293C22.2376 19.1293 22.5196 18.8287 22.5196 18.4581C22.5196 18.0874 22.2376 17.7869 21.8897 17.7869C21.5418 17.7869 21.2598 18.0874 21.2598 18.4581C21.2598 18.8287 21.5418 19.1293 21.8897 19.1293Z" fill="#4B6C9A"/>
<path d="M15.7471 14.4308C16.095 14.4308 16.377 14.1303 16.377 13.7596C16.377 13.389 16.095 13.0884 15.7471 13.0884C15.3992 13.0884 15.1172 13.389 15.1172 13.7596C15.1172 14.1303 15.3992 14.4308 15.7471 14.4308Z" fill="#4B6C9A"/>
<path d="M22.9912 11.4105C23.3391 11.4105 23.6212 11.1099 23.6212 10.7393C23.6212 10.3686 23.3391 10.0681 22.9912 10.0681C22.6434 10.0681 22.3613 10.3686 22.3613 10.7393C22.3613 11.1099 22.6434 11.4105 22.9912 11.4105Z" fill="#4B6C9A"/>
<path d="M25.8272 17.7869C26.1751 17.7869 26.4571 17.4863 26.4571 17.1157C26.4571 16.745 26.1751 16.4445 25.8272 16.4445C25.4793 16.4445 25.1973 16.745 25.1973 17.1157C25.1973 17.4863 25.4793 17.7869 25.8272 17.7869Z" fill="#4B6C9A"/>
<path d="M30.2354 8.22223C30.5833 8.22223 30.8653 7.92171 30.8653 7.55102C30.8653 7.18034 30.5833 6.87982 30.2354 6.87982C29.8875 6.87982 29.6055 7.18034 29.6055 7.55102C29.6055 7.92171 29.8875 8.22223 30.2354 8.22223Z" fill="#4B6C9A"/>
<path d="M30.3141 20.6395C30.7055 20.6395 31.0228 20.3014 31.0228 19.8844C31.0228 19.4674 30.7055 19.1293 30.3141 19.1293C29.9228 19.1293 29.6055 19.4674 29.6055 19.8844C29.6055 20.3014 29.9228 20.6395 30.3141 20.6395Z" fill="#4B6C9A"/>
<path d="M25.3538 8.39004C25.7886 8.39004 26.1412 8.0144 26.1412 7.55104C26.1412 7.08767 25.7886 6.71204 25.3538 6.71204C24.919 6.71204 24.5664 7.08767 24.5664 7.55104C24.5664 8.0144 24.919 8.39004 25.3538 8.39004Z" fill="#4B6C9A"/>
<path d="M15.6701 34.9025C16.2355 34.9025 16.6937 34.4142 16.6937 33.8118C16.6937 33.2094 16.2355 32.7211 15.6701 32.7211C15.1048 32.7211 14.6465 33.2094 14.6465 33.8118C14.6465 34.4142 15.1048 34.9025 15.6701 34.9025Z" fill="#4B6C9A"/>
<path d="M30.3142 1.25848V40.0204L15.6685 33.8118V19.6679L0.849609 13.6757L30.3142 1.25848Z" stroke="#4B6C9A" stroke-width="0.3" stroke-miterlimit="10"/>
<path d="M1.96289 13.6757H30.3141L26.0621 16.8639" stroke="#4B6C9A" stroke-width="0.3" stroke-miterlimit="10"/>
<path d="M8.81836 10.4036L30.3144 40.0204" stroke="#4B6C9A" stroke-width="0.3" stroke-miterlimit="10"/>
<path d="M16.138 20.1679L30.3144 26.0929L15.6688 33.8118V7.43018L8.81836 17.1156" stroke="#4B6C9A" stroke-width="0.3" stroke-miterlimit="10"/>
<path d="M30.3156 1.25848L20.6038 13.5817L15.6699 19.8424L21.8904 18.458L20.8668 14.0113L25.8605 17.1156L30.3156 19.8843L23.4353 22.9886" stroke="#4B6C9A" stroke-width="0.3" stroke-miterlimit="10"/>
<path d="M25.7489 17.3674L23.3867 22.737L21.8906 18.4581L25.7489 17.1157" stroke="#4B6C9A" stroke-width="0.3" stroke-miterlimit="10"/>
<path d="M20.2362 13.3401L15.748 7.27246L30.315 14.0197" stroke="#4B6C9A" stroke-width="0.3" stroke-miterlimit="10"/>
<path d="M16.3789 7.43018L30.2372 7.55099" stroke="#4B6C9A" stroke-width="0.3" stroke-miterlimit="10"/>
<path d="M22.834 4.4115L30.3143 13.6758" stroke="#4B6C9A" stroke-width="0.3" stroke-miterlimit="10"/>
<path d="M23.1496 22.9886L15.748 26.8481L23.1496 36.9832L30.2362 33.0567L23.1496 22.9886Z" stroke="#4B6C9A" stroke-width="0.3" stroke-miterlimit="10"/>
<path d="M23.0703 23.2957L23.1491 36.9832" stroke="#4B6C9A" stroke-width="0.3" stroke-miterlimit="10"/>
<path d="M15.748 26.8481L30.2362 33.0567" stroke="#4B6C9A" stroke-width="0.3" stroke-miterlimit="10"/>
<path d="M32.0472 1.7619L59.9212 13.6757L38.6724 22.9887L44.9606 21.5624V33.8118L32.0472 39.5338C32.0472 39.5338 32.0472 38.5102 31.2598 38.1746V34.3152C31.2598 34.3152 32.2046 32.9728 31.2598 31.7982V27.9388C31.2598 27.9388 33.4645 26.1567 31.2598 24.1951V21.3459C31.2598 21.3459 32.3621 19.8474 31.2598 18.7752V15.5937C31.2598 15.5937 33.4645 13.56 31.2598 11.8551V8.94208C31.2598 8.94208 32.5196 7.60136 31.2598 6.27573V3.23519C31.2598 3.23519 32.2046 2.6009 32.0472 1.7619Z" fill="url(#paint0_linear_2_665)"/>
<path d="M85.14 31.24C84.1133 31.24 83.2067 31.0667 82.42 30.72C81.6333 30.36 81.0133 29.8533 80.56 29.2C80.1067 28.5333 79.8733 27.7267 79.86 26.78H82.56C82.5867 27.4333 82.82 27.9867 83.26 28.44C83.7133 28.88 84.3333 29.1 85.12 29.1C85.8 29.1 86.34 28.94 86.74 28.62C87.14 28.2867 87.34 27.8467 87.34 27.3C87.34 26.7267 87.16 26.28 86.8 25.96C86.4533 25.64 85.9867 25.38 85.4 25.18C84.8133 24.98 84.1867 24.7667 83.52 24.54C82.44 24.1667 81.6133 23.6867 81.04 23.1C80.48 22.5133 80.2 21.7333 80.2 20.76C80.1867 19.9333 80.38 19.2267 80.78 18.64C81.1933 18.04 81.7533 17.58 82.46 17.26C83.1667 16.9267 83.98 16.76 84.9 16.76C85.8333 16.76 86.6533 16.9267 87.36 17.26C88.08 17.5933 88.64 18.06 89.04 18.66C89.4533 19.26 89.6733 19.9733 89.7 20.8H86.96C86.9467 20.3067 86.7533 19.8733 86.38 19.5C86.02 19.1133 85.5133 18.92 84.86 18.92C84.3 18.9067 83.8267 19.0467 83.44 19.34C83.0667 19.62 82.88 20.0333 82.88 20.58C82.88 21.0467 83.0267 21.42 83.32 21.7C83.6133 21.9667 84.0133 22.1933 84.52 22.38C85.0267 22.5667 85.6067 22.7667 86.26 22.98C86.9533 23.22 87.5867 23.5 88.16 23.82C88.7333 24.14 89.1933 24.5667 89.54 25.1C89.8867 25.62 90.06 26.2933 90.06 27.12C90.06 27.8533 89.8733 28.5333 89.5 29.16C89.1267 29.7867 88.5733 30.2933 87.84 30.68C87.1067 31.0533 86.2067 31.24 85.14 31.24ZM98.6336 31.24C97.2203 31.24 96.0069 30.94 94.9936 30.34C93.9803 29.7267 93.2003 28.88 92.6536 27.8C92.1069 26.7067 91.8336 25.4467 91.8336 24.02C91.8336 22.5933 92.1069 21.3333 92.6536 20.24C93.2003 19.1467 93.9803 18.2933 94.9936 17.68C96.0069 17.0667 97.2203 16.76 98.6336 16.76C100.314 16.76 101.687 17.18 102.754 18.02C103.834 18.8467 104.507 20.0133 104.774 21.52H101.954C101.78 20.76 101.407 20.1667 100.834 19.74C100.274 19.3 99.5269 19.08 98.5936 19.08C97.3003 19.08 96.2869 19.52 95.5536 20.4C94.8203 21.28 94.4536 22.4867 94.4536 24.02C94.4536 25.5533 94.8203 26.76 95.5536 27.64C96.2869 28.5067 97.3003 28.94 98.5936 28.94C99.5269 28.94 100.274 28.74 100.834 28.34C101.407 27.9267 101.78 27.36 101.954 26.64H104.774C104.507 28.08 103.834 29.2067 102.754 30.02C101.687 30.8333 100.314 31.24 98.6336 31.24ZM107.04 31V17H109.6V22.82H115.88V17H118.44V31H115.88V24.9H109.6V31H107.04ZM127.721 31.24C126.321 31.24 125.094 30.9333 124.041 30.32C123.001 29.7067 122.181 28.86 121.581 27.78C120.994 26.6867 120.701 25.4267 120.701 24C120.701 22.5733 120.994 21.32 121.581 20.24C122.181 19.1467 123.001 18.2933 124.041 17.68C125.094 17.0667 126.321 16.76 127.721 16.76C129.107 16.76 130.327 17.0667 131.381 17.68C132.434 18.2933 133.254 19.1467 133.841 20.24C134.427 21.32 134.721 22.5733 134.721 24C134.721 25.4267 134.427 26.6867 133.841 27.78C133.254 28.86 132.434 29.7067 131.381 30.32C130.327 30.9333 129.107 31.24 127.721 31.24ZM127.721 28.94C129.054 28.94 130.114 28.5 130.901 27.62C131.701 26.74 132.101 25.5333 132.101 24C132.101 22.4667 131.701 21.26 130.901 20.38C130.114 19.5 129.054 19.06 127.721 19.06C126.387 19.06 125.321 19.5 124.521 20.38C123.721 21.26 123.321 22.4667 123.321 24C123.321 25.5333 123.721 26.74 124.521 27.62C125.321 28.5 126.387 28.94 127.721 28.94ZM143.541 31.24C142.141 31.24 140.914 30.9333 139.861 30.32C138.821 29.7067 138.001 28.86 137.401 27.78C136.814 26.6867 136.521 25.4267 136.521 24C136.521 22.5733 136.814 21.32 137.401 20.24C138.001 19.1467 138.821 18.2933 139.861 17.68C140.914 17.0667 142.141 16.76 143.541 16.76C144.928 16.76 146.148 17.0667 147.201 17.68C148.254 18.2933 149.074 19.1467 149.661 20.24C150.248 21.32 150.541 22.5733 150.541 24C150.541 25.4267 150.248 26.6867 149.661 27.78C149.074 28.86 148.254 29.7067 147.201 30.32C146.148 30.9333 144.928 31.24 143.541 31.24ZM143.541 28.94C144.874 28.94 145.934 28.5 146.721 27.62C147.521 26.74 147.921 25.5333 147.921 24C147.921 22.4667 147.521 21.26 146.721 20.38C145.934 19.5 144.874 19.06 143.541 19.06C142.208 19.06 141.141 19.5 140.341 20.38C139.541 21.26 139.141 22.4667 139.141 24C139.141 25.5333 139.541 26.74 140.341 27.62C141.141 28.5 142.208 28.94 143.541 28.94ZM155.554 31V19.06H151.474V17H162.214V19.06H158.114V31H155.554ZM164.11 31V17H173.25V19.06H166.67V22.9H172.65V24.9H166.67V28.94H173.25V31H164.11ZM182.013 31.24C180.599 31.24 179.386 30.94 178.373 30.34C177.359 29.7267 176.579 28.88 176.033 27.8C175.486 26.7067 175.213 25.4467 175.213 24.02C175.213 22.5933 175.486 21.3333 176.033 20.24C176.579 19.1467 177.359 18.2933 178.373 17.68C179.386 17.0667 180.599 16.76 182.013 16.76C183.693 16.76 185.066 17.18 186.133 18.02C187.213 18.8467 187.886 20.0133 188.153 21.52H185.332C185.159 20.76 184.786 20.1667 184.213 19.74C183.653 19.3 182.906 19.08 181.973 19.08C180.679 19.08 179.666 19.52 178.933 20.4C178.199 21.28 177.833 22.4867 177.833 24.02C177.833 25.5533 178.199 26.76 178.933 27.64C179.666 28.5067 180.679 28.94 181.973 28.94C182.906 28.94 183.653 28.74 184.213 28.34C184.786 27.9267 185.159 27.36 185.332 26.64H188.153C187.886 28.08 187.213 29.2067 186.133 30.02C185.066 30.8333 183.693 31.24 182.013 31.24ZM190.419 31V17H192.979V22.82H199.259V17H201.819V31H199.259V24.9H192.979V31H190.419Z" fill="url(#paint1_linear_2_665)"/>
<defs>
<linearGradient id="paint0_linear_2_665" x1="42.2046" y1="-2.51701" x2="19.6911" y2="38.4355" gradientUnits="userSpaceOnUse">
<stop stop-color="#042954"/>
<stop offset="0.703568" stop-color="#4B6C9A"/>
</linearGradient>
<linearGradient id="paint1_linear_2_665" x1="81.8902" y1="11.78" x2="127.694" y2="84.8393" gradientUnits="userSpaceOnUse">
<stop offset="0.0595896" stop-color="#042954"/>
<stop offset="1" stop-color="#4B6C9A"/>
</linearGradient>
</defs>
</svg>
