 
<svg width="46" height="48" viewBox="0 0 46 48" fill="none" xmlns="http://www.w3.org/2000/svg">
<rect x="0.400391" width="46" height="48" rx="8" fill="#24548C"/>
<g clip-path="url(#clip0_445_10108)">
<path d="M21.2708 17C21.2708 16.4696 21.4707 15.9609 21.8265 15.5858C22.1823 15.2107 22.6648 15 23.168 15C23.6712 15 24.1537 15.2107 24.5095 15.5858C24.8653 15.9609 25.0652 16.4696 25.0652 17C26.1546 17.543 27.0833 18.3883 27.7517 19.4453C28.4202 20.5023 28.8032 21.7311 28.8597 23V26C28.931 26.6217 29.1399 27.2171 29.4694 27.7381C29.799 28.2592 30.2399 28.6914 30.7569 29H15.5791C16.096 28.6914 16.537 28.2592 16.8665 27.7381C17.1961 27.2171 17.4049 26.6217 17.4763 26V23C17.5328 21.7311 17.9158 20.5023 18.5843 19.4453C19.2527 18.3883 20.1814 17.543 21.2708 17Z" stroke="#E6EAF0" stroke-width="1.5" stroke-linecap="round" stroke-linejoin="round"/>
<path d="M20.3213 29V30C20.3213 30.7956 20.6211 31.5587 21.1548 32.1213C21.6885 32.6839 22.4124 33 23.1671 33C23.9219 33 24.6457 32.6839 25.1794 32.1213C25.7131 31.5587 26.013 30.7956 26.013 30V29" stroke="#E6EAF0" stroke-width="1.5" stroke-linecap="round" stroke-linejoin="round"/>
<path d="M31.7051 18.727C31.0829 17.3003 30.1793 16.0297 29.0547 15" stroke="#E6EAF0" stroke-width="1.5" stroke-linecap="round" stroke-linejoin="round"/>
<path d="M14.6299 18.727C15.2516 17.3004 16.1544 16.0299 17.2784 15" stroke="#E6EAF0" stroke-width="1.5" stroke-linecap="round" stroke-linejoin="round"/>
</g>
<defs>
<clipPath id="clip0_445_10108">
<rect width="22.7667" height="24" fill="white" transform="translate(11.7842 12)"/>
</clipPath>
</defs>
</svg>
