<svg width="20" height="25" viewBox="0 0 20 25" fill="none" xmlns="http://www.w3.org/2000/svg">
<g clip-path="url(#clip0_823_20882)">
<path d="M2.53953 -0.000295028C1.13959 -0.000295028 0 1.13016 0 2.51784V21.8564C0 23.2441 1.13959 24.3745 2.53953 24.3745H17.4572C18.8572 24.3745 19.9968 23.2441 19.9968 21.8564V5.95472C19.9968 5.95472 20.0367 5.48909 19.8328 5.03598C19.6417 4.61125 19.3301 4.31564 19.3301 4.31564C19.3294 4.31459 19.3286 4.31355 19.3278 4.31252L15.6267 0.713863C15.6246 0.71181 15.6226 0.709778 15.6205 0.707768C15.6205 0.707768 15.3045 0.409498 14.8361 0.210244C14.2845 -0.0243668 13.7161 0.000399487 13.7161 0.000399487L13.7245 -0.00038147L2.53953 -0.000295028Z" fill="#4B6C9A"/>
<path d="M2.53906 0.827087H13.7241C13.7269 0.827116 13.7297 0.827116 13.7325 0.827087C13.7325 0.827087 14.1798 0.831384 14.5069 0.970545C14.8218 1.10448 15.0451 1.30723 15.0466 1.30859C15.0466 1.30859 15.0481 1.31015 15.0481 1.31015L18.74 4.9004C18.74 4.9004 18.9624 5.13319 19.0702 5.37275C19.1573 5.56611 19.1626 5.91988 19.1626 5.91988C19.1622 5.92572 19.162 5.93156 19.1618 5.93741V21.8566C19.1618 22.8005 18.4089 23.5476 17.4568 23.5476H2.53906C1.58688 23.5476 0.833984 22.8006 0.833984 21.8566V2.51809C0.833984 1.57416 1.58688 0.827087 2.53906 0.827087Z" fill="#F5F5F5"/>
<path d="M4.99383 14.5125C4.4197 13.9434 5.04086 13.1613 6.72662 12.3309L7.78732 11.8083L8.20055 10.9121C8.42782 10.4192 8.76703 9.61485 8.95434 9.12475L9.29491 8.23365L9.06022 7.57419C8.77165 6.76332 8.66874 5.54478 8.85183 5.10662C9.09983 4.51312 9.91216 4.57402 10.2338 5.21021C10.4849 5.70708 10.4592 6.60689 10.1615 7.74169L9.91743 8.67203L10.1324 9.03383C10.2507 9.23281 10.5961 9.7053 10.9 10.0838L11.4712 10.7881L12.182 10.6962C14.4399 10.4041 15.2133 10.9005 15.2133 11.6122C15.2133 12.5105 13.4403 12.5847 11.9515 11.5481C11.6165 11.3148 11.3864 11.0831 11.3864 11.0831C11.3864 11.0831 10.4537 11.2714 9.99445 11.3941C9.52042 11.5207 9.28393 11.6 8.58956 11.8324C8.58956 11.8324 8.34594 12.1831 8.18718 12.438C7.59654 13.3866 6.90691 14.1727 6.41441 14.4588C5.86298 14.7792 5.28489 14.801 4.99383 14.5125ZM5.89483 14.1934C6.21756 13.9957 6.87076 13.2299 7.32293 12.5191L7.506 12.2313L6.67242 12.6468C5.38498 13.2884 4.79599 13.8932 5.10226 14.259C5.27431 14.4645 5.48013 14.4475 5.89483 14.1934ZM14.2575 11.8665C14.5732 11.6474 14.5274 11.2057 14.1705 11.0276C13.8928 10.889 13.6689 10.8606 12.9475 10.8711C12.5041 10.9011 11.7912 10.9897 11.6703 11.0166C11.6703 11.0166 12.062 11.2849 12.2359 11.3836C12.4674 11.5146 13.0299 11.7579 13.4405 11.8825C13.8457 12.0054 14.08 11.9925 14.2575 11.8665ZM10.895 10.4812C10.704 10.2821 10.3791 9.86661 10.1731 9.55787C9.90374 9.20764 9.76865 8.96055 9.76865 8.96055C9.76865 8.96055 9.57174 9.58837 9.4102 9.96618L8.9062 11.2011L8.76007 11.4812C8.76007 11.4812 9.53692 11.2287 9.93218 11.1263C10.3508 11.0179 11.2004 10.8523 11.2004 10.8523L10.895 10.4812ZM9.81139 6.17348C9.86011 5.76813 9.88079 5.36339 9.74941 5.15929C9.385 4.76439 8.94516 5.0937 9.01966 6.03255C9.04473 6.34839 9.12388 6.8883 9.2297 7.22108L9.42211 7.82612L9.55752 7.37042C9.632 7.11979 9.74624 6.58116 9.81139 6.17348Z" fill="#4B6C9A"/>
<path d="M5.96875 17.148H6.90086C7.1987 17.148 7.44046 17.1762 7.62615 17.2327C7.81184 17.2874 7.96811 17.4104 8.09496 17.6018C8.22182 17.7913 8.28525 18.02 8.28525 18.2879C8.28525 18.5339 8.23377 18.7453 8.13082 18.9221C8.02786 19.0989 7.88905 19.2265 7.7144 19.3048C7.54158 19.3832 7.275 19.4224 6.91465 19.4224H6.592V20.8794H5.96875V17.148ZM6.592 17.6264V18.9276H6.90086C7.17664 18.9276 7.36692 18.8766 7.47172 18.7745C7.57835 18.6724 7.63166 18.5066 7.63166 18.277C7.63166 18.1057 7.59673 17.9672 7.52687 17.8614C7.45701 17.7539 7.37979 17.6883 7.29522 17.6646C7.21249 17.6391 7.08104 17.6263 6.90086 17.6263L6.592 17.6264ZM8.76234 17.148H9.60896C10.0189 17.148 10.3462 17.2199 10.5907 17.3639C10.8371 17.5079 11.0228 17.722 11.1478 18.0063C11.2746 18.2906 11.3381 18.6059 11.3381 18.9522C11.3381 19.3167 11.2811 19.642 11.1671 19.9281C11.0549 20.2124 10.8821 20.442 10.6486 20.617C10.417 20.792 10.086 20.8794 9.65584 20.8794H8.76234V17.148ZM9.38558 17.6428V20.3846H9.64481C10.007 20.3846 10.2699 20.2607 10.4335 20.0129C10.5971 19.7632 10.679 19.4306 10.679 19.0151C10.679 18.1002 10.3342 17.6428 9.64481 17.6428H9.38558ZM11.9365 17.148H14.0269V17.6428H12.5597V18.7581H13.7345V19.2529H12.5597V20.8794H11.9365V17.148Z" fill="#042954"/>
</g>
<defs>
<clipPath id="clip0_823_20882">
<rect width="20" height="24.375" fill="white"/>
</clipPath>
</defs>
</svg>
