<svg width="60" height="60" viewBox="0 0 60 60" fill="none" xmlns="http://www.w3.org/2000/svg">
<g clip-path="url(#clip0_436_19784)">
<path d="M40 42.5C40 43.163 40.2634 43.7989 40.7322 44.2678C41.2011 44.7366 41.837 45 42.5 45C43.163 45 43.7989 44.7366 44.2678 44.2678C44.7366 43.7989 45 43.163 45 42.5C45 41.837 44.7366 41.2011 44.2678 40.7322C43.7989 40.2634 43.163 40 42.5 40C41.837 40 41.2011 40.2634 40.7322 40.7322C40.2634 41.2011 40 41.837 40 42.5Z" stroke="#042954" stroke-width="5" stroke-linecap="round" stroke-linejoin="round"/>
<path d="M15 17.5C15 18.163 15.2634 18.7989 15.7322 19.2678C16.2011 19.7366 16.837 20 17.5 20C18.163 20 18.7989 19.7366 19.2678 19.2678C19.7366 18.7989 20 18.163 20 17.5C20 16.837 19.7366 16.2011 19.2678 15.7322C18.7989 15.2634 18.163 15 17.5 15C16.837 15 16.2011 15.2634 15.7322 15.7322C15.2634 16.2011 15 16.837 15 17.5Z" stroke="#042954" stroke-width="5" stroke-linecap="round" stroke-linejoin="round"/>
<path d="M15 45L45 15" stroke="#042954" stroke-width="5" stroke-linecap="round" stroke-linejoin="round"/>
</g>
<defs>
<clipPath id="clip0_436_19784">
<rect width="60" height="60" fill="white"/>
</clipPath>
</defs>
</svg>
