<svg width="20" height="20" viewBox="0 0 20 20" fill="none" xmlns="http://www.w3.org/2000/svg">
<g clip-path="url(#clip0_100_5567)">
<path d="M5.83317 5.83333C6.75365 5.83333 7.49984 5.08714 7.49984 4.16667C7.49984 3.24619 6.75365 2.5 5.83317 2.5C4.9127 2.5 4.1665 3.24619 4.1665 4.16667C4.1665 5.08714 4.9127 5.83333 5.83317 5.83333Z" stroke="#042954" stroke-width="1.5" stroke-linecap="round" stroke-linejoin="round"/>
<path d="M4.16683 18.3333V14.1667L3.3335 13.3333V10C3.3335 9.77899 3.42129 9.56703 3.57757 9.41074C3.73385 9.25446 3.94582 9.16667 4.16683 9.16667H7.50016C7.72118 9.16667 7.93314 9.25446 8.08942 9.41074C8.2457 9.56703 8.3335 9.77899 8.3335 10V13.3333L7.50016 14.1667V18.3333" stroke="#042954" stroke-width="1.5" stroke-linecap="round" stroke-linejoin="round"/>
<path d="M14.1667 5.83333C15.0871 5.83333 15.8333 5.08714 15.8333 4.16667C15.8333 3.24619 15.0871 2.5 14.1667 2.5C13.2462 2.5 12.5 3.24619 12.5 4.16667C12.5 5.08714 13.2462 5.83333 14.1667 5.83333Z" stroke="#042954" stroke-width="1.5" stroke-linecap="round" stroke-linejoin="round"/>
<path d="M12.5002 18.3333V15H10.8335L12.5002 10C12.5002 9.77899 12.588 9.56703 12.7442 9.41074C12.9005 9.25446 13.1125 9.16667 13.3335 9.16667H15.0002C15.2212 9.16667 15.4331 9.25446 15.5894 9.41074C15.7457 9.56703 15.8335 9.77899 15.8335 10L17.5002 15H15.8335V18.3333" stroke="#042954" stroke-width="1.5" stroke-linecap="round" stroke-linejoin="round"/>
</g>
<defs>
<clipPath id="clip0_100_5567">
<rect width="20" height="20" fill="white"/>
</clipPath>
</defs>
</svg>
