<svg width="20" height="20" viewBox="0 0 20 20" fill="none" xmlns="http://www.w3.org/2000/svg">
<g clip-path="url(#clip0_708_21182)">
<path d="M3.33301 3.09167V16.9083C3.33304 17.0107 3.36002 17.1113 3.41123 17.1999C3.46244 17.2886 3.53608 17.3622 3.62475 17.4134C3.71343 17.4646 3.81401 17.4915 3.91639 17.4915C4.01877 17.4915 4.11934 17.4645 4.20801 17.4133L16.393 10.3967C16.4628 10.3565 16.5207 10.2986 16.561 10.2289C16.6012 10.1592 16.6224 10.0801 16.6224 9.99958C16.6224 9.91908 16.6012 9.83999 16.561 9.77028C16.5207 9.70057 16.4628 9.64271 16.393 9.6025L4.20801 2.58667C4.11928 2.53544 4.01863 2.50849 3.91618 2.50851C3.81373 2.50854 3.71309 2.53555 3.62439 2.58683C3.5357 2.6381 3.46207 2.71184 3.41092 2.8006C3.35976 2.88937 3.33289 2.98921 3.33301 3.09167Z" stroke="#042954" stroke-width="1.5" stroke-linecap="round" stroke-linejoin="round"/>
<path d="M12.5 7.5L3.75 17.0833" stroke="#042954" stroke-width="1.5" stroke-linecap="round" stroke-linejoin="round"/>
<path d="M3.75 2.91667L12.5 12.5" stroke="#042954" stroke-width="1.5" stroke-linecap="round" stroke-linejoin="round"/>
</g>
<defs>
<clipPath id="clip0_708_21182">
<rect width="20" height="20" fill="white"/>
</clipPath>
</defs>
</svg>
