<svg width="40" height="40" viewBox="0 0 40 40" fill="none" xmlns="http://www.w3.org/2000/svg">
<g clip-path="url(#clip0_251_10022)">
<path d="M23.3335 5V11.6667C23.3335 12.1087 23.5091 12.5326 23.8217 12.8452C24.1342 13.1577 24.5581 13.3333 25.0002 13.3333H31.6668" stroke="#107C41" stroke-linecap="round" stroke-linejoin="round"/>
<path d="M28.3335 35H11.6668C10.7828 35 9.93493 34.6488 9.30981 34.0237C8.68469 33.3986 8.3335 32.5507 8.3335 31.6667V8.33333C8.3335 7.44928 8.68469 6.60143 9.30981 5.97631C9.93493 5.35119 10.7828 5 11.6668 5H23.3335L31.6668 13.3333V31.6667C31.6668 32.5507 31.3156 33.3986 30.6905 34.0237C30.0654 34.6488 29.2176 35 28.3335 35Z" stroke="#107C41" stroke-linecap="round" stroke-linejoin="round"/>
<g clip-path="url(#clip1_251_10022)">
<path d="M21.2465 23.8698L14.9209 22.7535V31.0017C14.9209 31.3784 15.2263 31.6838 15.6029 31.6838H26.5179C26.8946 31.6838 27.2 31.3784 27.2 31.0017V27.9628L21.2465 23.8698Z" fill="#185C37"/>
<path d="M21.2465 16.8H15.6029C15.2263 16.8 14.9209 17.1054 14.9209 17.4821V20.521L21.2465 24.2419L24.5953 25.3582L27.2 24.2419V20.521L21.2465 16.8Z" fill="#21A366"/>
<path d="M14.9209 20.521H21.2465V24.2419H14.9209V20.521Z" fill="#107C41"/>
<path opacity="0.1" d="M19.4482 19.7767H14.9209V29.0791H19.4482C19.8243 29.0778 20.129 28.7732 20.1302 28.397V20.4588C20.129 20.0826 19.8243 19.778 19.4482 19.7767Z" fill="black"/>
<path opacity="0.2" d="M19.0761 20.1489H14.9209V29.4513H19.0761C19.4522 29.45 19.7569 29.1454 19.7581 28.7692V20.831C19.7569 20.4548 19.4522 20.1501 19.0761 20.1489Z" fill="black"/>
<path opacity="0.2" d="M19.0761 20.1489H14.9209V28.7071H19.0761C19.4522 28.7058 19.7569 28.4012 19.7581 28.025V20.831C19.7569 20.4548 19.4522 20.1501 19.0761 20.1489Z" fill="black"/>
<path opacity="0.2" d="M18.704 20.1489H14.9209V28.7071H18.704C19.0801 28.7058 19.3848 28.4012 19.386 28.025V20.831C19.3848 20.4548 19.0801 20.1501 18.704 20.1489Z" fill="black"/>
<path d="M11.8822 20.1489H18.7042C19.0809 20.1489 19.3862 20.4543 19.3862 20.831V27.6529C19.3862 28.0296 19.0809 28.335 18.7042 28.335H11.8822C11.5056 28.335 11.2002 28.0296 11.2002 27.6529V20.831C11.2002 20.4543 11.5056 20.1489 11.8822 20.1489Z" fill="url(#paint0_linear_251_10022)"/>
<path d="M13.3125 26.4589L14.7473 24.2356L13.4327 22.0247H14.4902L15.2076 23.4386C15.2738 23.5729 15.3192 23.6727 15.3438 23.7385H15.3531C15.4002 23.6314 15.4498 23.5273 15.5019 23.4263L16.2688 22.0254H17.2396L15.8915 24.2234L17.2738 26.4589H16.2409L15.4122 24.9069C15.3732 24.8409 15.3401 24.7715 15.3132 24.6996H15.301C15.2767 24.77 15.2445 24.8375 15.205 24.9006L14.3518 26.4589H13.3125Z" fill="white"/>
<path d="M26.518 16.8H21.2466V20.521H27.2001V17.4821C27.2001 17.1054 26.8947 16.8 26.518 16.8Z" fill="#33C481"/>
<path d="M21.2466 24.2419H27.2001V27.9629H21.2466V24.2419Z" fill="#107C41"/>
</g>
</g>
<defs>
<linearGradient id="paint0_linear_251_10022" x1="12.6223" y1="19.616" x2="17.9642" y2="28.8679" gradientUnits="userSpaceOnUse">
<stop stop-color="#18884F"/>
<stop offset="0.5" stop-color="#117E43"/>
<stop offset="1" stop-color="#0B6631"/>
</linearGradient>
<clipPath id="clip0_251_10022">
<rect width="40" height="40" fill="white"/>
</clipPath>
<clipPath id="clip1_251_10022">
<rect width="16" height="14.8837" fill="white" transform="translate(11.2002 16.8)"/>
</clipPath>
</defs>
</svg>
